<?xml version="1.0" encoding="UTF-8" standalone="no"?>
<svg
   width="102mm"
   height="102mm"
   viewBox="0 0 102 102"
   version="1.1"
   id="svg8"
   inkscape:version="1.1 (c68e22c387, 2021-05-23)"
   sodipodi:docname="nec_final_logo.svg"
   xmlns:inkscape="http://www.inkscape.org/namespaces/inkscape"
   xmlns:sodipodi="http://sodipodi.sourceforge.net/DTD/sodipodi-0.dtd"
   xmlns="http://www.w3.org/2000/svg"
   xmlns:svg="http://www.w3.org/2000/svg"
   xmlns:rdf="http://www.w3.org/1999/02/22-rdf-syntax-ns#"
   xmlns:cc="http://creativecommons.org/ns#"
   xmlns:dc="http://purl.org/dc/elements/1.1/">
  <defs
     id="defs2" />
  <sodipodi:namedview
     id="base"
     pagecolor="#ffffff"
     bordercolor="#666666"
     borderopacity="1.0"
     inkscape:pageopacity="0.0"
     inkscape:pageshadow="2"
     inkscape:zoom="0.98994949"
     inkscape:cx="288.39855"
     inkscape:cy="315.67267"
     inkscape:document-units="mm"
     inkscape:current-layer="layer1"
     inkscape:document-rotation="0"
     showgrid="false"
     inkscape:window-width="1549"
     inkscape:window-height="1041"
     inkscape:window-x="269"
     inkscape:window-y="11"
     inkscape:window-maximized="0"
     inkscape:pagecheckerboard="0"
     units="mm" />
  <metadata
     id="metadata5">
    <rdf:RDF>
      <cc:Work
         rdf:about="">
        <dc:format>image/svg+xml</dc:format>
        <dc:type
           rdf:resource="http://purl.org/dc/dcmitype/StillImage" />
      </cc:Work>
    </rdf:RDF>
  </metadata>
  <g
     inkscape:label="Ebene 1"
     inkscape:groupmode="layer"
     id="layer1">
    <path
       d="M 48.539107,1.2613805 C 29.983001,2.4255475 14.319661,12.867769 6.1705011,29.413047 c -1.05834,2.116667 -1.905,3.986389 -1.905,4.1275 0,0.176389 10.5127799,0.282222 23.3891599,0.282222 15.204726,0 23.812496,0.141111 24.694446,0.388056 1.97555,0.529166 3.63361,2.187222 4.30389,4.233333 1.27,3.774722 -0.67028,7.337778 -4.58611,8.396111 -0.9525,0.246945 -9.38389,0.388056 -26.176106,0.388056 H 1.0905011 v 4.056944 4.056945 H 14.601891 c 8.39611,0 13.97,0.141111 14.81666,0.388055 1.905,0.529167 3.91584,2.645834 4.444996,4.656667 0.84667,3.386667 -1.164156,6.949722 -4.409716,7.9375 -1.02305,0.282222 -4.97417,0.423333 -13.335,0.423333 -6.5263903,0 -11.8533299,0.105834 -11.8533299,0.282222 0,0.141112 0.84666,2.010834 1.905,4.1275 5.0799999,10.301111 12.8411099,18.062221 23.2127799,23.142231 4.19805,2.046114 8.995826,3.598334 13.476106,4.374438 4.16277,0.70557 12.52361,0.70557 16.8275,-0.0353 16.05139,-2.716394 29.77444,-13.229178 36.86527,-28.186944 0.846669,-1.799167 1.552229,-3.351389 1.552229,-3.4925 0,-0.105833 -10.512779,-0.211667 -23.353889,-0.211667 -15.98084,0 -23.84778,-0.141111 -24.80028,-0.388055 -0.81139,-0.246945 -1.94028,-0.9525 -2.64583,-1.693334 -3.56306,-3.739424 -2.15195,-9.278035 2.78694,-10.936091 0.84667,-0.282222 8.43139,-0.388055 26.17611,-0.388055 H 101.27939 V 51.285269 47.263603 L 87.274107,47.157769 c -13.44083,-0.105833 -14.11111,-0.141111 -15.45167,-0.846666 -3.88055,-2.010834 -4.69194,-7.267223 -1.62278,-10.336389 2.04612,-2.046111 2.82223,-2.151945 16.05139,-2.151945 h 11.888609 l -0.24694,-0.811389 c -0.49389,-1.5875 -3.457219,-7.196666 -5.115279,-9.630833 -8.89,-13.193889 -23.42444,-21.3783335 -39.29944,-22.0838885 -1.72861,-0.105833 -3.95111,-0.105833 -4.93889,-0.03528 z"
       id="path847"
       style="fill:#0073e6;fill-opacity:1;stroke:none;stroke-width:0.0352778" />
  </g>
</svg>
