<?xml version="1.0" encoding="UTF-8" standalone="no"?>
<svg
   data-name="Layer 1"
   width="807.85972"
   height="581.58175"
   viewBox="0 0 807.85972 581.58175"
   version="1.1"
   id="svg2011"
   sodipodi:docname="undraw_world_pins.svg"
   inkscape:version="1.1 (c68e22c387, 2021-05-23)"
   xmlns:inkscape="http://www.inkscape.org/namespaces/inkscape"
   xmlns:sodipodi="http://sodipodi.sourceforge.net/DTD/sodipodi-0.dtd"
   xmlns="http://www.w3.org/2000/svg"
   xmlns:svg="http://www.w3.org/2000/svg">
  <defs
     id="defs2015" />
  <sodipodi:namedview
     id="namedview2013"
     pagecolor="#ffffff"
     bordercolor="#666666"
     borderopacity="1.0"
     inkscape:pageshadow="2"
     inkscape:pageopacity="0.0"
     inkscape:pagecheckerboard="0"
     showgrid="false"
     inkscape:zoom="0.98819574"
     inkscape:cx="409.83783"
     inkscape:cy="275.75508"
     inkscape:window-width="1858"
     inkscape:window-height="1057"
     inkscape:window-x="54"
     inkscape:window-y="-8"
     inkscape:window-maximized="1"
     inkscape:current-layer="svg2011" />
  <path
     d="M901.32664,359.28559c-29.23789-21.85782-75.03171-42.52949-125.63917-56.71393-46.07822-12.91529-91.02143-19.15081-126.56032-17.55845l-.185-4.13293c35.96224-1.61055,81.37165,4.67732,127.862,17.70792,51.07935,14.31675,97.36929,35.23244,126.99984,57.384Z"
     fill="#ccc"
     id="path1911"
     transform="translate(-196.07014 -159.20912)" />
  <path
     d="M898.29142,376.12168a137.67178,137.67178,0,0,1-11.91446,56.2089q-.98672,2.22156-2.0561,4.40172a138.19449,138.19449,0,0,1-262.37841-60.6106q0-4.79685.3268-9.51915.15517-2.4015.40132-4.774a138.18139,138.18139,0,0,1,275.62085,14.29316Z"
     fill="#6c63ff"
     id="path1913"
     transform="translate(-196.07014 -159.20912)"
     style="fill:#7472ff;fill-opacity:1" />
  <path
     d="M886.377,432.33058q-.98672,2.22156-2.0561,4.40172-6.05652.6578-12.75013.95563c-3.69431.16548-7.49618.24823-11.38077.24823-33.93136,0-74.7673-6.26336-116.48441-17.95442-46.49117-13.03142-88.55164-31.25886-118.43706-51.32724q-1.52654-1.02391-2.99928-2.05195.15516-2.4015.40132-4.774,2.37669,1.69405,4.90228,3.39228c29.53375,19.82846,71.17228,37.86147,117.24976,50.77708,41.353,11.59174,81.80426,17.80133,115.34672,17.80133q5.75241,0,11.21531-.2441Q879.34006,433.1952,886.377,432.33058Z"
     opacity="0.1"
     style="isolation:isolate"
     id="path1915"
     transform="translate(-196.07014 -159.20912)" />
  <path
     d="M860.19056,434.62735c-33.93033.00081-74.76867-6.26321-116.48394-17.95538-46.4907-13.03061-88.553-31.25872-118.43869-51.32658-30.50945-20.48664-44.81593-40.67331-40.28428-56.84141,4.53149-16.16808,27.24578-25.97842,63.95844-27.6237l.185,4.13293c-17.14436.7682-31.11629,3.31645-41.52756,7.57379-10.386,4.24685-16.65492,9.97779-18.63248,17.03366-1.97757,7.05566.39956,15.20979,7.06516,24.23616,6.68194,9.04818,17.29424,18.48685,31.54191,28.054,29.53037,19.82933,71.17027,37.86269,117.24916,50.77777,41.35405,11.59075,81.80173,17.80186,115.34706,17.80265q5.74914,0,11.213-.24442c17.14453-.76841,31.11646-3.31645,41.528-7.57379,10.386-4.24685,16.65492-9.97758,18.63248-17.03345,3.55077-12.66943-7.18028-29.13164-30.21719-46.354l2.47736-3.31319c11.85458,8.86254,20.62986,17.59844,26.08223,25.96449,5.84508,8.96919,7.743,17.31987,5.64106,24.81932-4.53166,16.16808-27.24616,25.978-63.95844,27.62351C867.87462,434.54535,864.075,434.62735,860.19056,434.62735Z"
     fill="#ccc"
     id="path1917"
     transform="translate(-196.07014 -159.20912)" />
  <circle
     cx="567.70201"
     cy="52.23483"
     fill="#f2f2f2"
     id="circle1919"
     r="1.58335" />
  <circle
     cx="357.64502"
     cy="119.80078"
     fill="#ccc"
     id="circle1921"
     r="2.7239" />
  <circle
     cx="351.83942"
     cy="226.41262"
     fill="#ccc"
     id="circle1923"
     r="5.38101" />
  <circle
     cx="674.84163"
     cy="61.73489"
     fill="#ccc"
     id="circle1925"
     r="3.58631" />
  <circle
     cx="802.03694"
     cy="210.57918"
     fill="#ccc"
     id="circle1927"
     r="5.82278" />
  <circle
     cx="756.50568"
     cy="117.57999"
     fill="#ccc"
     id="circle1929"
     r="2.49824" />
  <circle
     cx="453.17346"
     cy="85.48506"
     fill="#ccc"
     id="circle1931"
     r="3.89733" />
  <circle
     cx="747.76185"
     cy="198.77239"
     fill="#ccc"
     id="circle1933"
     r="2.49824" />
  <circle
     cx="364.50618"
     cy="302.41316"
     fill="#ccc"
     id="circle1935"
     r="3.10939" />
  <circle
     cx="427.31216"
     cy="345.69122"
     fill="#ccc"
     id="circle1937"
     r="3.36729" />
  <polygon
     points="525.2 6.645 518.555 6.645 518.555 0 514.99 0 514.99 6.645 508.342 6.645 508.342 10.213 514.99 10.213 514.99 16.858 518.555 16.858 518.555 10.213 525.2 10.213 525.2 6.645"
     fill="#ccc"
     id="polygon1939" />
  <polygon
     points="679.342 366.201 675.168 366.201 675.168 362.029 672.93 362.029 672.93 366.201 668.758 366.201 668.758 368.44 672.93 368.44 672.93 372.612 675.168 372.612 675.168 368.44 679.342 368.44 679.342 366.201"
     fill="#ccc"
     id="polygon1941" />
  <polygon
     points="775.646 344.844 772.527 344.844 772.527 341.725 770.852 341.725 770.852 344.844 767.733 344.844 767.733 346.519 770.852 346.519 770.852 349.638 772.527 349.638 772.527 346.519 775.646 346.519 775.646 344.844"
     fill="#ccc"
     id="polygon1943" />
  <circle
     cx="566.1187"
     cy="108.71737"
     opacity="0.1"
     style="isolation:isolate"
     id="circle1945"
     r="11.61119" />
  <circle
     cx="476.92363"
     cy="193.69017"
     opacity="0.1"
     style="isolation:isolate"
     id="circle1947"
     r="11.61119" />
  <circle
     cx="605.17451"
     cy="310.32987"
     opacity="0.1"
     style="isolation:isolate"
     id="circle1949"
     r="11.61119" />
  <circle
     cx="566.1187"
     cy="211.63475"
     opacity="0.1"
     style="isolation:isolate"
     id="circle1951"
     r="11.61119" />
  <circle
     cx="482.72921"
     cy="275.49629"
     opacity="0.1"
     style="isolation:isolate"
     id="circle1953"
     r="11.61119" />
  <circle
     cx="628.3969"
     cy="149.35654"
     opacity="0.1"
     style="isolation:isolate"
     id="circle1955"
     r="11.61119" />
  <circle
     cx="666.92492"
     cy="227.99597"
     opacity="0.1"
     style="isolation:isolate"
     id="circle1957"
     r="11.61119" />
  <circle
     cx="566.1187"
     cy="160.96774"
     fill="#fff"
     id="circle1959"
     r="15.30567" />
  <path
     d="M762.18884,298.01a21.639,21.639,0,0,0-21.639,21.639c0,11.9509,21.639,51.19479,21.639,51.19479s21.639-39.24389,21.639-51.19479A21.639,21.639,0,0,0,762.18884,298.01Zm0,32.19467a10.02787,10.02787,0,1,1,10.02789-10.02787,10.02785,10.02785,0,0,1-10.02789,10.02787h0Z"
     fill="#ccc"
     id="path1961"
     transform="translate(-196.07014 -159.20912)" />
  <circle
     cx="482.72921"
     cy="226.41262"
     fill="#fff"
     id="circle1963"
     r="15.30565" />
  <path
     d="M678.79935,363.45492a21.639,21.639,0,0,0-21.639,21.639c0,11.9509,21.639,51.19478,21.639,51.19478s21.639-39.24388,21.639-51.19478A21.639,21.639,0,0,0,678.79935,363.45492Zm0,32.19466a10.02787,10.02787,0,1,1,10.02789-10.02786,10.02784,10.02784,0,0,1-10.02789,10.02786h0Z"
     fill="#ccc"
     id="path1965"
     transform="translate(-196.07014 -159.20912)" />
  <circle
     cx="666.92492"
     cy="178.9123"
     fill="#fff"
     id="circle1967"
     r="15.30567" />
  <path
     d="M862.9951,315.9546a21.639,21.639,0,0,0-21.639,21.63906c0,11.9509,21.639,51.19478,21.639,51.19478s21.639-39.24388,21.639-51.19478A21.639,21.639,0,0,0,862.9951,315.9546Zm0,32.19466A10.02787,10.02787,0,1,1,873.023,338.1214a10.02784,10.02784,0,0,1-10.02789,10.02786Z"
     fill="#ccc"
     id="path1969"
     transform="translate(-196.07014 -159.20912)" />
  <circle
     cx="566.1187"
     cy="58.05035"
     fill="#fff"
     id="circle1971"
     r="15.30567" />
  <path
     d="M762.18884,195.09266a21.63905,21.63905,0,0,0-21.639,21.639c0,11.95091,21.639,51.1948,21.639,51.1948s21.639-39.24389,21.639-51.1948A21.639,21.639,0,0,0,762.18884,195.09266Zm0,32.19467a10.02787,10.02787,0,1,1,10.02789-10.02787,10.02785,10.02785,0,0,1-10.02789,10.02787Z"
     fill="#ccc"
     id="path1973"
     transform="translate(-196.07014 -159.20912)" />
  <circle
     cx="605.17451"
     cy="261.2462"
     fill="#fff"
     id="circle1975"
     r="15.30567" />
  <path
     d="M801.24465,398.2885a21.639,21.639,0,0,0-21.639,21.639c0,11.9509,21.639,51.19478,21.639,51.19478s21.639-39.24388,21.639-51.19478A21.639,21.639,0,0,0,801.24465,398.2885Zm0,32.19467a10.02787,10.02787,0,1,1,10.02789-10.02787,10.02785,10.02785,0,0,1-10.02789,10.02787Z"
     fill="#3f3d56"
     id="path1977"
     transform="translate(-196.07014 -159.20912)" />
  <circle
     cx="476.92363"
     cy="143.55094"
     fill="#fff"
     id="circle1979"
     r="15.30567" />
  <path
     d="M672.99378,280.59326a21.639,21.639,0,0,0-21.639,21.639c0,11.9509,21.639,51.19479,21.639,51.19479s21.639-39.24389,21.639-51.19479A21.639,21.639,0,0,0,672.99378,280.59326Zm0,32.19466a10.02787,10.02787,0,1,1,10.02788-10.02787,10.02786,10.02786,0,0,1-10.02788,10.02787Z"
     fill="#3f3d56"
     id="path1981"
     transform="translate(-196.07014 -159.20912)" />
  <circle
     cx="628.3969"
     cy="100.80065"
     fill="#fff"
     id="circle1983"
     r="15.30567" />
  <path
     d="M824.467,237.843A21.639,21.639,0,0,0,802.828,259.482c0,11.95091,21.639,51.19479,21.639,51.19479s21.639-39.24389,21.639-51.1948A21.639,21.639,0,0,0,824.467,237.843Zm0,32.19467a10.02787,10.02787,0,1,1,10.02788-10.02787A10.02786,10.02786,0,0,1,824.467,270.03762h0Z"
     fill="#3f3d56"
     id="path1985"
     transform="translate(-196.07014 -159.20912)" />
</svg>
